<svg height="64" viewBox="0 0 188 64" width="188" xmlns="http://www.w3.org/2000/svg" xmlns:xlink="http://www.w3.org/1999/xlink"><linearGradient id="a" x1="0%" x2="100%" y1="50%" y2="50%"><stop offset="0" stop-color="#fabd61"/><stop offset="1" stop-color="#ec7633"/></linearGradient><linearGradient id="b" x1="50%" x2="50%" y1="100%" y2="0%"><stop offset="0" stop-color="#ffbd59"/><stop offset="1" stop-color="#ec7633"/></linearGradient><g fill="none" fill-rule="evenodd"><path d="m79.324 28.744c-.6480032-.396002-1.3349964-.7109988-2.061-.945s-1.3469974-.351-1.863-.351c-.4920025 0-.8819986.0899991-1.17.27s-.432.4439983-.432.792c0 .4440022.2069979.7829988.621 1.017s1.0529957.4769987 1.917.729 1.5749972.5039987 2.133.756 1.034998.6299975 1.431 1.134.594 1.1699959.594 1.998c0 .804004-.2129979 1.4969971-.639 2.079s-1.0109963 1.0229985-1.755 1.323-1.5899953.45-2.538.45c-1.0200051 0-2.0219951-.1799982-3.006-.54s-1.8359964-.8519969-2.556-1.476l1.134-2.322c.6360032.5760029 1.3679959 1.0379983 2.196 1.386s1.5839966.522 2.268.522c.5880029 0 1.0469983-.1079989 1.377-.324.3300016-.2160011.495-.527998.495-.936 0-.3240016-.1109989-.590999-.333-.801s-.5039983-.3809993-.846-.513-.812997-.2819992-1.413-.45c-.8640043-.2400012-1.5689973-.4799988-2.115-.72s-1.016998-.6059975-1.413-1.098-.594-1.1459959-.594-1.962c0-.7560038.203998-1.4189971.612-1.989.408002-.5700028.9779963-1.0079985 1.71-1.314s1.5839951-.459 2.556-.459c.8640043 0 1.7159958.1259987 2.556.378s1.5839968.5879979 2.232 1.008zm17.514-3.51c1.608008 0 2.8499956.3809962 3.726 1.143.876004.7620038 1.314 1.838993 1.314 3.231 0 1.4640073-.440996 2.600996-1.323 3.411-.8820044.8100041-2.120992 1.215-3.717 1.215h-2.502v3.6h-2.844v-12.6zm-.144 6.624c.804004 0 1.4189979-.1829982 1.845-.549s.639-.9029965.639-1.611c0-.6960035-.2129979-1.2209982-.639-1.575s-1.040996-.531-1.845-.531h-2.358v4.266zm16.002-6.624h9.594v2.358h-6.75v2.736h6.066v2.358h-6.066v2.79h6.948v2.358h-9.792zm30.15 3.942c-.432002-.5160026-.938997-.9209985-1.521-1.215s-1.166997-.441-1.755-.441c-.708004 0-1.355997.1739983-1.944.522s-1.049998.821997-1.386 1.422-.504 1.2659963-.504 1.998.167998 1.400997.504 2.007.797997 1.0859982 1.386 1.44 1.235996.531 1.944.531c.564003 0 1.136997-.1349987 1.719-.405.582003-.2700014 1.100998-.6329977 1.557-1.089l1.674 1.818c-.672003.6960035-1.460995 1.247998-2.367 1.656s-1.814995.612-2.727.612c-1.236006 0-2.357995-.2849971-3.366-.855s-1.799997-1.352995-2.376-2.349-.864-2.1059939-.864-3.33c0-1.2120061.293997-2.3099951.882-3.294s1.394995-1.7579972 2.421-2.322 2.162994-.846 3.411-.846c.912005 0 1.811996.1889981 2.7.567s1.643997.8909968 2.268 1.539zm11.124-3.942h10.53v2.412h-3.852v10.188h-2.844v-10.188h-3.834zm26.928-.198c1.260006 0 2.405995.2819972 3.438.846s1.844997 1.3409951 2.439 2.331c.594003.990005.891 2.0909939.891 3.303s-.296997 2.315995-.891 3.312-1.406995 1.7789971-2.439 2.349-2.177994.855-3.438.855-2.405995-.2849971-3.438-.855-1.844997-1.349995-2.439-2.34c-.594003-.9900049-.891-2.0969939-.891-3.321 0-1.2120061.296997-2.312995.891-3.303.594003-.9900049 1.403995-1.7669972 2.43-2.331s2.174994-.846 3.447-.846zm.036 2.484c-.696003 0-1.343997.1769982-1.944.531s-1.073998.8369969-1.422 1.449-.522 1.2839963-.522 2.016c0 .7440037.176998 1.4219969.531 2.034s.827997 1.0979982 1.422 1.458 1.238997.54 1.935.54 1.334997-.1769982 1.917-.531 1.043998-.8399969 1.386-1.458.513-1.2989963.513-2.043c0-.7320037-.170998-1.4039969-.513-2.016s-.803997-1.0949982-1.386-1.449-1.220997-.531-1.917-.531z" fill="#fff"/><path d="m43.75 17.4768519c-3.0092743-1.7747003-6.1149531-3.1635753-9.3171296-4.1666667-3.2021765-1.0030915-6.1535359-1.5046296-8.8541667-1.5046296-2.546309 0-4.5717517.4436684-6.0763889 1.3310185-1.5046371.8873501-2.2569444 2.2569352-2.2569444 4.1087963 0 1.929022.9452066 3.4143466 2.8356481 4.4560185 1.8904416 1.0416719 4.8803808 2.1411979 8.9699074 3.2986111 4.3210093 1.311735 7.8703565 2.6041603 10.6481482 3.8773148 2.7777916 1.2731545 5.189033 3.1635677 7.2337963 5.6712963s3.0671296 5.8063067 3.0671296 9.8958333c0 6.0185487-2.3147917 10.648132-6.9444444 13.8888889-4.6296528 3.240757-10.4552119 4.8611111-17.4768519 4.8611111-4.7839745 0-9.4521377-.7523072-14.0046296-2.2569444-4.55249192-1.5046372-8.41047804-3.6458194-11.5740741-6.4236111l5.20833333-10.5324074c2.77779167 2.3919873 6.09565977 4.2631105 9.95370367 5.6134259 3.858044 1.3503154 7.5231308 2.025463 10.9953704 2.025463 2.7777917 0 4.9961337-.4822483 6.6550926-1.4467593s2.4884259-2.4112558 2.4884259-4.3402778c0-2.1605046-.9644965-3.7808588-2.8935185-4.8611111s-5.0539907-2.276228-9.375-3.5879629c-4.1666875-1.2345741-7.5617153-2.4498397-10.1851852-3.6458334-2.6234699-1.1959936-4.89968169-3.0092471-6.82870368-5.4398148s-2.89351852-5.6134062-2.89351852-9.5486111c0-6.0957095 2.21834201-10.74458275 6.65509259-13.94675926 4.43675061-3.2021765 10.01154051-4.80324074 16.72453701-4.80324074 4.0895267 0 8.1211221.57869792 12.0949074 1.73611111 3.9737853 1.1574132 7.5038426 2.77776736 10.5902778 4.86111111z" fill="url(#a)"/><path d="m20.0810185 21.7013889c1.8904416 1.0416719 4.8803808 2.1411979 8.9699074 3.2986111 4.3210093 1.311735 7.8703565 2.6041603 10.6481482 3.8773148 2.7777916 1.2731545 5.189033 3.1635677 7.2337963 5.6712963s3.0671296 5.8063067 3.0671296 9.8958333c0 3.7812013-.913667 7.0141667-2.7410183 9.6989307-1.0812488 1.5885824 1.7410183-4.1433751-14.8515743-13.1711529-1.929022-1.0802523-5.0539907-2.276228-9.375-3.5879629-4.1666875-1.2345741-7.5617153-2.4498397-10.1851852-3.6458334-2.6234699-1.1959936-4.89968169-3.0092471-6.82870368-5.4398148s-2.89351852-5.6134062-2.89351852-9.5486111c0-4.2444535 1.07553251-7.7874284 3.22662-10.62897185.93821586-1.23936434-3.22662 7.87897185 13.7293985 13.58036075z" fill="url(#b)"/></g></svg>